<svg width="115" height="149" viewBox="0 0 115 149" fill="none" xmlns="http://www.w3.org/2000/svg">
<path d="M105.333 3.29167C105.333 2.41866 104.987 1.58141 104.369 0.964107C103.752 0.3468 102.915 0 102.042 0C101.169 0 100.331 0.3468 99.7141 0.964107C99.0968 1.58141 98.75 2.41866 98.75 3.29167V154.708C98.75 155.581 99.0968 156.419 99.7141 157.036C100.331 157.653 101.169 158 102.042 158C102.915 158 103.752 157.653 104.369 157.036C104.987 156.419 105.333 155.581 105.333 154.708V3.29167ZM23.0417 19.75C23.9147 19.75 24.7519 20.0968 25.3692 20.7141C25.9865 21.3314 26.3333 22.1687 26.3333 23.0417V134.958C26.3333 135.831 25.9865 136.669 25.3692 137.286C24.7519 137.903 23.9147 138.25 23.0417 138.25C22.1687 138.25 21.3314 137.903 20.7141 137.286C20.0968 136.669 19.75 135.831 19.75 134.958V23.0417C19.75 22.1687 20.0968 21.3314 20.7141 20.7141C21.3314 20.0968 22.1687 19.75 23.0417 19.75ZM3.29167 52.6667C4.16467 52.6667 5.00192 53.0135 5.61923 53.6308C6.23653 54.2481 6.58333 55.0853 6.58333 55.9583V102.042C6.58333 102.915 6.23653 103.752 5.61923 104.369C5.00192 104.987 4.16467 105.333 3.29167 105.333C2.41866 105.333 1.58141 104.987 0.964107 104.369C0.3468 103.752 0 102.915 0 102.042V55.9583C0 55.0853 0.3468 54.2481 0.964107 53.6308C1.58141 53.0135 2.41866 52.6667 3.29167 52.6667ZM42.7917 46.0833C43.6647 46.0833 44.5019 46.4301 45.1192 47.0474C45.7365 47.6647 46.0833 48.502 46.0833 49.375V108.625C46.0833 109.498 45.7365 110.335 45.1192 110.953C44.5019 111.57 43.6647 111.917 42.7917 111.917C41.9187 111.917 41.0814 111.57 40.4641 110.953C39.8468 110.335 39.5 109.498 39.5 108.625V49.375C39.5 48.502 39.8468 47.6647 40.4641 47.0474C41.0814 46.4301 41.9187 46.0833 42.7917 46.0833ZM65.8333 69.125C65.8333 68.252 65.4865 67.4147 64.8692 66.7974C64.2519 66.1801 63.4147 65.8333 62.5417 65.8333C61.6687 65.8333 60.8314 66.1801 60.2141 66.7974C59.5968 67.4147 59.25 68.252 59.25 69.125V88.875C59.25 89.748 59.5968 90.5853 60.2141 91.2026C60.8314 91.8199 61.6687 92.1667 62.5417 92.1667C63.4147 92.1667 64.2519 91.8199 64.8692 91.2026C65.4865 90.5853 65.8333 89.748 65.8333 88.875V69.125ZM82.2917 46.0833C83.1647 46.0833 84.0019 46.4301 84.6192 47.0474C85.2365 47.6647 85.5833 48.502 85.5833 49.375V108.625C85.5833 109.498 85.2365 110.335 84.6192 110.953C84.0019 111.57 83.1647 111.917 82.2917 111.917C81.4187 111.917 80.5814 111.57 79.9641 110.953C79.3468 110.335 79 109.498 79 108.625V49.375C79 48.502 79.3468 47.6647 79.9641 47.0474C80.5814 46.4301 81.4187 46.0833 82.2917 46.0833ZM121.792 26.3333C122.665 26.3333 123.502 26.6801 124.119 27.2974C124.737 27.9147 125.083 28.752 125.083 29.625V128.375C125.083 129.248 124.737 130.085 124.119 130.703C123.502 131.32 122.665 131.667 121.792 131.667C120.919 131.667 120.081 131.32 119.464 130.703C118.847 130.085 118.5 129.248 118.5 128.375V29.625C118.5 28.752 118.847 27.9147 119.464 27.2974C120.081 26.6801 120.919 26.3333 121.792 26.3333ZM144.833 55.9583C144.833 55.0853 144.487 54.2481 143.869 53.6308C143.252 53.0135 142.415 52.6667 141.542 52.6667C140.669 52.6667 139.831 53.0135 139.214 53.6308C138.597 54.2481 138.25 55.0853 138.25 55.9583V102.042C138.25 102.915 138.597 103.752 139.214 104.369C139.831 104.987 140.669 105.333 141.542 105.333C142.415 105.333 143.252 104.987 143.869 104.369C144.487 103.752 144.833 102.915 144.833 102.042V55.9583Z" fill="url(#paint0_linear_56_4373)"/>
<defs>
<linearGradient id="paint0_linear_56_4373" x1="72.4167" y1="0" x2="72.4167" y2="158" gradientUnits="userSpaceOnUse">
<stop stop-color="#F6E4B5"/>
<stop offset="1" stop-color="#F6F0E1"/>
</linearGradient>
</defs>
</svg>
