<svg width="167" height="91" viewBox="0 0 167 91" fill="none" xmlns="http://www.w3.org/2000/svg">
<path d="M174 71H164C159.582 71 156 67.4183 156 63V37.8985C156 33.4802 152.419 29.8985 148.001 29.8985C145.266 29.8985 142.293 29.8985 139.64 29.8985C135.221 29.8985 131.643 33.4802 131.643 37.8985V80C131.643 84.4183 128.061 88 123.643 88H118.214C113.796 88 110.214 84.4183 110.214 80V11C110.214 6.58172 106.633 3 102.214 3H95.7143C91.296 3 87.7143 6.58172 87.7143 11V80C87.7143 84.4183 84.1326 88 79.7143 88H75.7143C71.296 88 67.7143 84.4183 67.7143 80V46.0152C67.7143 41.597 64.1326 38.0152 59.7143 38.0152H52.1286C47.858 38.0152 44.3405 41.3695 44.1376 45.6352L43.0767 67.9435C42.8738 72.2092 39.3562 75.5635 35.0857 75.5635H27.5C23.0817 75.5635 19.5 71.9817 19.5 67.5635V35.5C19.5 31.0817 15.9183 27.5 11.5 27.5H-7" stroke="url(#paint0_linear_56_4351)" stroke-width="6"/>
<defs>
<linearGradient id="paint0_linear_56_4351" x1="82" y1="18" x2="82" y2="88" gradientUnits="userSpaceOnUse">
<stop stop-color="#9ADEE2"/>
<stop offset="1" stop-color="#B8E8EB"/>
</linearGradient>
</defs>
</svg>
